PathFileType	4	(X/Y/Z)	OpenSim_Sub09_EMGBaseline_Accel.trc
DataRate	CameraRate	NumFrames	NumMarkers	Units	OrigDataRate	OrigDataStartFrame	OrigNumFrames
100	100	17	8	m	100	3651	7301
Frame#	Time	torso_imu_offset_imu	pelvis_imu_offset_imu	tibia_r_imu_offset_imu	femur_r_imu_offset_imu	tibia_l_imu_offset_imu	femur_l_imu_offset_imu	toes_r_imu_offset_imu	toes_l_imu_offset_imu
				X1	Y1	Z1	X2	Y2	Z2	X3	Y3	Z3	X4	Y4	Z4	X5	Y5	Z5	X6	Y6	Z6	X7	Y7	Z7	X8		Y8	Z8	

3651	36.50000000	8.92732500	1.16436900	6.19414600	9.79570000	-0.41455200	3.78462800	8.11204400	7.81888600	-2.93222400	11.46467500	1.95559400	2.53302900	9.33046500	-5.20901900	-0.68744100	9.84305900	0.88833600	-2.21616200	11.18019700	-4.24962400	5.44069600	5.39794600	2.67495000	10.82982900
3652	36.51000000	8.93516200	0.96783400	6.29779000	9.79664400	-1.15054000	3.69218800	7.45248600	7.96472100	-3.33638600	11.27951100	1.53681400	2.07907500	10.31909300	-2.50770200	0.11153700	9.68026800	1.46681200	-2.10388600	1.86423600	-3.10726700	3.86661600	5.56961800	2.14957500	10.89833800
3653	36.52000000	8.89954000	0.89312200	6.37399700	9.65702800	-1.77250400	3.55488900	6.76375200	9.10925600	-1.85419700	10.98120100	0.73640100	1.82297600	11.26288500	-0.62571500	0.23612500	9.64775100	2.12829500	-2.02466200	4.54104000	-3.88207600	13.56353100	5.23868100	2.11465300	11.01745100
3654	36.53000000	8.80733900	0.77559200	6.43514400	9.37207000	-2.20470800	3.55736000	5.67806200	10.24873400	-3.09125600	10.67808200	-0.28552000	1.95563600	11.70047600	0.59052000	0.43684800	9.60817700	2.64362700	-2.00415000	24.21445200	-4.81507800	16.25640100	5.14068900	2.33976400	11.13709200
3655	36.54000000	8.82954100	0.71065400	6.42067700	9.33225700	-2.38887600	3.54419000	3.58963800	11.43901600	-4.26947400	10.82026700	-1.11086800	1.94327900	11.38421000	1.85340500	0.71844900	9.45445400	2.82288800	-1.89450500	12.98323200	-8.71746400	12.71291100	5.16685700	2.42727300	10.82827500
3656	36.55000000	9.02039600	0.61191000	6.51310000	9.29004000	-2.36567300	3.50726200	1.79425900	11.76571400	-1.12346600	11.01300700	-1.88512100	2.00657400	10.40228700	2.91871800	0.85183700	9.27168100	2.54557400	-1.78393800	-2.67996900	-9.56628600	7.59279700	4.95870200	2.76921200	10.95131700
3657	36.56000000	9.08001300	0.58738200	6.57870500	9.37939900	-2.19131600	3.32198800	1.29105500	10.19399500	0.06338500	11.09406100	-2.41406400	2.06311900	9.71753900	3.08080100	0.88890900	9.14779600	2.08459800	-1.83940500	-7.33626500	-9.54643200	5.77929500	5.51026300	2.57457500	10.69167900
3658	36.57000000	8.97621400	0.52069700	6.64072000	9.50096600	-1.92897300	3.21140400	1.79919800	8.78279600	-0.40608800	10.93114400	-2.48206600	2.27529700	9.92057500	1.53082700	0.87527300	9.09084700	1.48615800	-1.93874600	-3.36792800	-6.20527300	5.88113200	4.53430000	2.59453100	10.94010300
3659	36.58000000	8.86514200	0.54458900	6.62395900	9.50326000	-1.67596600	3.06332500	2.57186300	7.74161100	-0.05229800	10.60927700	-2.34178000	2.39775700	10.07405100	-0.78718300	0.26389300	9.16337200	0.87885000	-1.90111900	-0.95864200	-3.86860300	6.31129700	4.71182300	2.63342100	10.96551900
3660	36.59000000	8.83649200	0.52869400	6.56600200	9.58211400	-1.46247800	3.05175300	2.84054000	6.83675000	0.74553500	10.27449700	-1.98135600	2.35352900	9.77628500	-2.92585100	-0.63185200	9.37691700	0.36104200	-1.84281600	0.31953500	-2.55088800	7.04769500	5.02809500	2.38127700	10.93490600
3661	36.60000000	8.83684000	0.49575700	6.48449000	9.54857200	-1.34837800	2.94162600	2.66756400	5.95312700	0.94340700	9.87309600	-1.44184000	2.47089600	9.34024800	-4.87945900	-1.71152600	9.71406700	0.06267800	-1.70147100	1.81766900	-2.12294000	7.57723700	4.87887500	2.35463300	10.80974400
3662	36.61000000	8.69966400	0.50224200	6.45316400	9.46429300	-1.18914700	2.85538500	2.18243600	5.30407500	0.60520300	9.42204300	-0.79230300	2.67849400	8.86426300	-6.72602600	-2.09732100	9.84005800	0.07617200	-1.66421800	2.27375100	-2.73381400	7.39616900	4.99029900	2.59479200	10.99461400
3663	36.62000000	8.42071900	0.48123700	6.44081600	9.29934700	-1.13282100	2.83831400	1.75684700	5.15205200	0.19363100	8.89685400	-0.30090500	2.78495900	8.79542300	-7.23668400	-1.59110400	9.77633700	0.28063000	-1.81214900	1.75781200	-3.53084400	7.02783400	5.02094100	2.73957800	10.84572900
3664	36.63000000	8.18885100	0.48380600	6.37435600	9.03586400	-1.07554700	2.80846600	1.70303200	4.96243000	-0.00712300	8.66456000	0.56962500	2.70464900	9.14696400	-5.87386500	-1.15283600	9.59739200	0.66857400	-1.94564400	1.61646800	-3.68374400	6.99476800	5.05906100	2.48789300	10.60292300
3665	36.64000000	8.05212400	0.41202800	6.28268600	8.75286200	-1.00891600	2.75241100	1.89254600	4.54039400	-0.12056000	8.28124700	0.73826300	2.64395400	9.35703000	-3.45029400	-0.25220000	9.45590000	1.09410900	-1.80080000	2.45592300	-3.04954300	7.44500200	5.27386500	2.53197800	10.67558400
3666	36.65000000	7.99817600	0.41171600	6.31354500	8.55260900	-0.98007600	2.76098100	2.45930100	4.35334200	-0.15041900	8.08340700	0.99645600	2.60044000	9.53316400	-1.43642900	0.34622100	9.37150400	1.57287100	-1.66845600	3.45448200	-2.05385400	8.06422000	5.32233500	2.40321800	10.75112200
3667	36.66000000	7.94481100	0.41289200	6.34381400	8.46701700	-0.79881300	2.75438200	3.25849600	4.60721400	-0.07125400	7.79156500	0.83311600	2.54155600	9.81408100	-0.11839100	0.83505700	9.34589700	2.10326000	-1.54993100	3.97022900	-1.05450000	8.70005000	4.87966200	2.36516800	10.94004500
